Coordinates
version=1
nRows=11
nColumns=63
inDegrees=yes

Units are S.I. units (second, meters, Newtons, ...)
If the header above contains a line with 'inDegrees', this indicates whether rotational values are in degrees (yes) or radians (no).

endheader
time	pelvis_tilt	pelvis_list	pelvis_rotation	pelvis_tx	pelvis_ty	pelvis_tz	hip_flexion_r	hip_adduction_r	hip_rotation_r	knee_angle_r	knee_angle_r_beta	ankle_angle_r	subtalar_angle_r	mtp_angle_r	hip_flexion_l	hip_adduction_l	hip_rotation_l	knee_angle_l	knee_angle_l_beta	ankle_angle_l	subtalar_angle_l	mtp_angle_l	L5_S1_Flex_Ext	L5_S1_Lat_Bending	L5_S1_axial_rotation	L4_L5_Flex_Ext	L4_L5_Lat_Bending	L4_L5_axial_rotation	L3_L4_Flex_Ext	L3_L4_Lat_Bending	L3_L4_axial_rotation	L2_L3_Flex_Ext	L2_L3_Lat_Bending	L2_L3_axial_rotation	L1_L2_Flex_Ext	L1_L2_Lat_Bending	L1_L2_axial_rotation	L1_T12_Flex_Ext	L1_T12_Lat_Bending	L1_T12_axial_rotation	Abs_r3	Abs_r2	Abs_r1	Abs_t1	Abs_t2	neck_flexion	neck_bending	neck_rotation	arm_flex_r	arm_add_r	arm_rot_r	elbow_flex_r	pro_sup_r	wrist_flex_r	wrist_dev_r	arm_flex_l	arm_add_l	arm_rot_l	elbow_flex_l	pro_sup_l	wrist_flex_l	wrist_dev_l
      5.43902439	     -0.66992697	     10.64416929	     97.23666622	      0.29969649	      0.85962295	      0.56827811	    -14.98074862	      0.11647915	      4.85858682	      2.44189908	      0.04261918	     24.26371593	    -10.37137314	      0.00000000	    -14.73909995	     -1.03063065	     18.59423154	      0.72957823	      0.01273354	     25.82732987	     -9.62792420	      0.00000000	     -0.29991468	      0.04106652	     -1.58694725	     -0.55697155	      0.05461847	     -1.68613146	     -0.49272982	      0.09984913	     -1.68613146	     -0.34277248	      0.09984913	     -1.38857885	     -0.27850077	      0.08374284	     -1.28939464	     -0.17137125	      0.06361203	     -1.19021044	     -2.14226055	      0.46455264	     -8.82612453	      0.00000000	      0.00000000	     -0.44217436	     -2.16828975	      8.55774105	     39.87774306	     -9.04349507	     -4.72381515	    130.63635167	     89.26302219	    -10.71399983	     -7.98923876	     39.22131418	    -20.02311697	    -15.51249373	    131.70502047	     89.15432824	    -11.52638637	     -9.13154612
      5.46341463	     -0.69051617	     10.45441097	     97.22021911	      0.29919952	      0.85873536	      0.56767447	    -14.80875059	      0.05425618	      4.98171702	      2.41969048	      0.04223157	     24.39820285	    -10.47751308	      0.00000000	    -14.56966524	     -0.97541907	     18.77048159	      0.69931429	      0.01220534	     25.94384937	     -9.69660368	      0.00000000	     -0.30723101	      0.02595412	     -1.60720824	     -0.57055870	      0.03451898	     -1.70765876	     -0.50474982	      0.06310485	     -1.70765876	     -0.35113432	      0.06310485	     -1.40630721	     -0.28529471	      0.05292564	     -1.30585670	     -0.17555180	      0.04020293	     -1.20540618	     -2.19452036	      0.29359819	     -8.93881009	      0.00000000	      0.00000000	      0.56324873	     -1.61786863	      7.49703250	     36.74675880	     -9.25659520	     -4.37317254	    129.05494763	     89.35213305	    -10.18048923	     -7.39284312	     35.93126043	    -19.37842795	    -16.47709478	    133.06150393	     88.96723493	    -11.42234790	     -9.34852951
      5.48780488	     -0.67917786	     10.10780153	     97.29024811	      0.29858796	      0.85738343	      0.56653308	    -14.50805816	      0.03690640	      5.14332583	      2.42705349	      0.04236007	     24.51080630	    -10.88358126	      0.00000000	    -14.24441750	     -0.94796710	     19.32332800	      0.68076019	      0.01188151	     26.09853556	    -10.17580716	      0.00000000	     -0.27985979	      0.01523187	     -1.68326650	     -0.51972762	      0.02025839	     -1.78847066	     -0.45978165	      0.03703478	     -1.78847066	     -0.31985176	      0.03703478	     -1.47285819	     -0.25987780	      0.03106084	     -1.36765403	     -0.15991189	      0.02359417	     -1.26244988	     -1.99901051	      0.17230600	     -9.36182332	      0.00000000	      0.00000000	      1.59940588	     -1.39381324	      6.88639177	     33.70433684	     -9.38512181	     -4.08934076	    127.52951708	     89.39976073	     -8.83792711	     -5.15920033	     31.76423421	    -18.85940781	    -18.16113424	    134.71765372	     88.51999232	    -10.40887778	     -8.58669824
      5.51219512	     -0.78136227	      9.85819930	     97.13578404	      0.29859811	      0.85597100	      0.56554304	    -14.32935168	     -0.13943475	      5.30523173	      2.38841060	      0.04168563	     24.76556569	    -10.94445610	      0.00000000	    -14.05475804	     -0.77454980	     19.44699257	      0.65392276	      0.01141311	     26.29116481	    -10.39516055	      0.00000000	     -0.27105796	     -0.02074936	     -1.70483095	     -0.50338174	     -0.02759665	     -1.81138289	     -0.44532113	     -0.05044999	     -1.81138289	     -0.30979214	     -0.05044999	     -1.49172708	     -0.25170442	     -0.04231210	     -1.38517515	     -0.15488252	     -0.03214076	     -1.27862321	     -1.93613992	     -0.23472091	     -9.48175830	      0.00000000	      0.00000000	      2.87312194	     -0.38128170	      6.00457173	     30.82004664	     -9.63631256	     -3.66686969	    125.75142149	     89.39563448	     -8.95392286	     -3.42942278	     27.39370081	    -18.45430568	    -19.15081401	    135.85604883	     87.41927787	    -10.56667856	     -9.02222693
      5.53658537	     -0.89783809	      9.61770418	     97.08912461	      0.29835760	      0.85454939	      0.56476344	    -14.14539718	     -0.30988216	      5.46710898	      2.38046904	      0.04154702	     25.03399756	    -11.15410328	      0.00000000	    -13.85298628	     -0.60018309	     19.71783540	      0.63312964	      0.01105020	     26.45818863	    -10.69869776	      0.00000000	     -0.27051589	     -0.04089928	     -1.77161664	     -0.50237505	     -0.05439605	     -1.88234268	     -0.44443055	     -0.09944252	     -1.88234268	     -0.30917261	     -0.09944252	     -1.55016456	     -0.25120105	     -0.08340182	     -1.43943852	     -0.15457278	     -0.06335299	     -1.32871248	     -1.93226793	     -0.46266087	     -9.85320027	      0.00000000	      0.00000000	      4.42928409	      0.24308055	      5.99256189	     28.40649662	     -9.78021247	     -3.06356854	    123.92329914	     89.34465747	     -8.85063225	     -0.71414641	     22.48601062	    -17.84245645	    -20.23792032	    136.68937835	     84.89617917	    -11.04306395	     -9.95946903
      5.56097561	     -0.94355079	      9.40455384	     96.97257843	      0.29829807	      0.85332400	      0.56412016	    -13.95690068	     -0.41025169	      5.73718359	      2.37220497	      0.04140279	     25.25467021	    -11.42822524	      0.00000000	    -13.67077211	     -0.48904973	     19.93399237	      0.61862918	      0.01079712	     26.60616773	    -11.06423187	      0.00000000	     -0.27426524	     -0.04863557	     -1.79613374	     -0.50933798	     -0.06468531	     -1.90839210	     -0.45059037	     -0.11825254	     -1.90839210	     -0.31345774	     -0.11825254	     -1.57161703	     -0.25468270	     -0.09917766	     -1.45935867	     -0.15671516	     -0.07533650	     -1.34710031	     -1.95904919	     -0.55017535	     -9.98955704	      0.00000000	      0.00000000	      6.05459903	      0.53574458	      5.69949059	     26.36987505	     -9.92328185	     -2.47459396	    121.73027706	     89.25404462	     -8.91738859	      0.29789521	     17.51811942	    -16.95840492	    -20.83236246	    136.85997519	     81.92120723	    -11.47924133	    -11.59512445
      5.58536585	     -0.95591053	      9.28850342	     96.92430162	      0.29803852	      0.85243682	      0.56376087	    -13.88479987	     -0.47222092	      5.94431014	      2.30511984	      0.04023193	     25.45917309	    -11.51347251	      0.00000000	    -13.57717293	     -0.43408249	     20.01301447	      0.60115723	      0.01049217	     26.71706895	    -11.18140336	      0.00000000	     -0.29579901	     -0.05342500	     -1.76119281	     -0.54932834	     -0.07105525	     -1.87126736	     -0.48596819	     -0.12989755	     -1.87126736	     -0.33806868	     -0.12989755	     -1.54104371	     -0.27467896	     -0.10894427	     -1.43096916	     -0.16901955	     -0.08275533	     -1.32089461	     -2.11286273	     -0.60435432	     -9.79522606	      0.00000000	      0.00000000	      7.69944094	      0.95615177	      4.82967896	     24.56668357	    -10.14147286	     -2.36276443	    119.71549274	     89.13545425	     -9.25119409	      0.33293919	     13.06741612	    -15.66838355	    -21.03274896	    136.47665712	     81.21459701	    -11.63991561	    -12.22201538
      5.60975610	     -0.87083693	      9.01098974	     96.68379494	      0.29795016	      0.85166815	      0.56307624	    -13.56257003	     -0.48326996	      6.37017780	      2.38750466	      0.04166982	     25.61782362	    -11.80164346	      0.00000000	    -13.32802883	     -0.41047713	     20.00868255	      0.60645864	      0.01058470	     26.78059728	    -11.49117693	      0.00000000	     -0.26872786	     -0.03230007	     -1.71832751	     -0.49905451	     -0.04295909	     -1.82572298	     -0.44149300	     -0.07853439	     -1.82572298	     -0.30712907	     -0.07853439	     -1.50353657	     -0.24954069	     -0.06586630	     -1.39614110	     -0.15355110	     -0.05003281	     -1.28874563	     -1.91949622	     -0.36538486	     -9.55682211	      0.00000000	      0.00000000	      8.76719759	      0.25146383	      4.41194930	     23.21164375	    -10.31498574	     -1.89463225	    117.78415719	     88.97642308	    -10.12279695	     -0.86902145	      8.76058439	    -14.47741988	    -21.12961614	    135.59816174	     80.64640683	    -11.78131485	    -13.17427171
      5.63414634	     -0.81010717	      8.86227878	     96.43439626	      0.29783005	      0.85129233	      0.56268705	    -13.40346860	     -0.51770591	      6.95887024	      2.37699510	      0.04148639	     25.66258181	    -12.22951612	      0.00000000	    -13.22011681	     -0.36796037	     19.96360814	      0.58816972	      0.01026550	     26.76984637	    -11.80159635	      0.00000000	     -0.26417095	     -0.01113834	     -1.65437644	     -0.49059187	     -0.01481399	     -1.75777496	     -0.43400646	     -0.02708175	     -1.75777496	     -0.30192098	     -0.02708175	     -1.44757938	     -0.24530915	     -0.02271330	     -1.34418085	     -0.15094728	     -0.01725328	     -1.24078233	     -1.88694669	     -0.12599910	     -9.20114542	      0.00000000	      0.00000000	      9.70718592	     -0.38854871	      3.94206863	     22.26437086	    -10.38555033	     -1.65539851	    116.20275977	     88.81091728	    -10.96758002	     -2.15112084	      5.42465649	    -13.28766510	    -20.92416999	    134.34155557	     81.67800954	    -12.09327458	    -13.62542913
      5.65853659	     -0.73821097	      8.69310587	     96.03380098	      0.29798581	      0.85106122	      0.56230237	    -13.25341750	     -0.56114100	      8.20851752	      2.26373216	      0.03950958	     25.40724370	    -13.39317086	      0.00000000	    -13.10510818	     -0.30531529	     19.77258909	      0.57274353	      0.00999626	     26.71103256	    -12.15138683	      0.00000000	     -0.25782086	      0.00659211	     -1.55162679	     -0.47879912	      0.00876751	     -1.64860347	     -0.42357389	      0.01602806	     -1.64860347	     -0.29466346	      0.01602806	     -1.35767344	     -0.23941245	      0.01344263	     -1.26069677	     -0.14731884	      0.01021118	     -1.16372009	     -1.84158862	      0.07457129	     -8.62968273	      0.00000000	      0.00000000	     10.57070114	     -0.99214629	      3.00145827	     21.40200767	    -10.41917282	     -1.61329527	    115.24699917	     88.71603251	    -11.60102887	     -2.72227889	      3.01961394	    -12.30025535	    -20.27504869	    133.10545141	     84.38379790	    -14.20971643	    -12.99345106
      5.68292683	     -0.70496992	      8.45336567	     95.86644256	      0.29793121	      0.85084203	      0.56193903	    -13.10213639	     -0.62150500	      8.47367512	      2.04876406	      0.03575768	     25.35947390	    -13.37638050	      0.00000000	    -12.89338021	     -0.25080728	     19.61102071	      0.56806681	      0.00991464	     26.65136172	    -12.22838068	      0.00000000	     -0.24706675	      0.02045837	     -1.52597707	     -0.45882766	      0.02720964	     -1.62135064	     -0.40590596	      0.04974249	     -1.62135064	     -0.28237259	      0.04974249	     -1.33522994	     -0.22942618	      0.04171872	     -1.23985637	     -0.14117394	      0.03169002	     -1.14448280	     -1.76477307	      0.23142922	     -8.48702668	      0.00000000	      0.00000000	     11.44297258	     -1.59870713	      2.21496756	     20.50806349	    -10.30242226	     -1.55204417	    114.89239792	     88.72483050	    -11.65310908	     -2.72186844	      1.21873968	    -11.53913635	    -19.92937944	    131.71985578	     84.73678327	    -14.40961712	    -12.75930091
